<mxfile host="app.diagrams.net" modified="2021-08-24T06:07:48.114Z" agent="5.0 (Windows NT 10.0; Win64; x64) AppleWebKit/537.36 (KHTML, like Gecko) Chrome/92.0.4515.159 Safari/537.36" etag="UUkOnau5ln4YGZ03wKRJ" version="14.9.8" type="github">
  <diagram id="R2lEEEUBdFMjLlhIrx00" name="Page-1">
    <mxGraphModel dx="1890" dy="547" grid="1" gridSize="10" guides="1" tooltips="1" connect="1" arrows="1" fold="1" page="1" pageScale="1" pageWidth="850" pageHeight="1100" math="0" shadow="0" extFonts="Permanent Marker^https://fonts.googleapis.com/css?family=Permanent+Marker">
      <root>
        <mxCell id="0" />
        <mxCell id="1" parent="0" />
        <mxCell id="DG-fOdzNMm19QLig9ons-3" style="edgeStyle=orthogonalEdgeStyle;rounded=0;orthogonalLoop=1;jettySize=auto;html=1;exitX=0.25;exitY=1;exitDx=0;exitDy=0;" edge="1" parent="1" source="DG-fOdzNMm19QLig9ons-1">
          <mxGeometry relative="1" as="geometry">
            <mxPoint x="310" y="400" as="targetPoint" />
          </mxGeometry>
        </mxCell>
        <mxCell id="DG-fOdzNMm19QLig9ons-1" value="license" style="rounded=0;whiteSpace=wrap;html=1;" vertex="1" parent="1">
          <mxGeometry x="400" y="180" width="120" height="60" as="geometry" />
        </mxCell>
        <mxCell id="DG-fOdzNMm19QLig9ons-6" value="License number" style="ellipse;whiteSpace=wrap;html=1;align=center;fontStyle=4;sketch=0;" vertex="1" parent="1">
          <mxGeometry x="260" y="400" width="100" height="40" as="geometry" />
        </mxCell>
        <mxCell id="DG-fOdzNMm19QLig9ons-23" style="edgeStyle=orthogonalEdgeStyle;rounded=0;orthogonalLoop=1;jettySize=auto;html=1;exitX=0.25;exitY=1;exitDx=0;exitDy=0;" edge="1" parent="1" source="DG-fOdzNMm19QLig9ons-8" target="DG-fOdzNMm19QLig9ons-22">
          <mxGeometry relative="1" as="geometry" />
        </mxCell>
        <mxCell id="DG-fOdzNMm19QLig9ons-25" style="edgeStyle=orthogonalEdgeStyle;rounded=0;orthogonalLoop=1;jettySize=auto;html=1;exitX=0.75;exitY=1;exitDx=0;exitDy=0;entryX=0.231;entryY=0.043;entryDx=0;entryDy=0;entryPerimeter=0;" edge="1" parent="1" source="DG-fOdzNMm19QLig9ons-8" target="DG-fOdzNMm19QLig9ons-24">
          <mxGeometry relative="1" as="geometry" />
        </mxCell>
        <mxCell id="DG-fOdzNMm19QLig9ons-39" style="edgeStyle=orthogonalEdgeStyle;rounded=0;orthogonalLoop=1;jettySize=auto;html=1;exitX=0;exitY=1;exitDx=0;exitDy=0;" edge="1" parent="1" source="DG-fOdzNMm19QLig9ons-8" target="DG-fOdzNMm19QLig9ons-40">
          <mxGeometry relative="1" as="geometry">
            <mxPoint x="-70" y="350" as="targetPoint" />
          </mxGeometry>
        </mxCell>
        <mxCell id="DG-fOdzNMm19QLig9ons-8" value="driver" style="whiteSpace=wrap;html=1;align=center;sketch=0;" vertex="1" parent="1">
          <mxGeometry x="-260" y="190" width="120" height="40" as="geometry" />
        </mxCell>
        <mxCell id="DG-fOdzNMm19QLig9ons-10" value="" style="endArrow=none;html=1;rounded=0;exitX=1;exitY=0.5;exitDx=0;exitDy=0;startArrow=none;" edge="1" parent="1" source="DG-fOdzNMm19QLig9ons-45">
          <mxGeometry relative="1" as="geometry">
            <mxPoint x="260" y="210" as="sourcePoint" />
            <mxPoint x="400" y="210" as="targetPoint" />
          </mxGeometry>
        </mxCell>
        <mxCell id="DG-fOdzNMm19QLig9ons-11" value="1" style="resizable=0;html=1;align=right;verticalAlign=bottom;" connectable="0" vertex="1" parent="DG-fOdzNMm19QLig9ons-10">
          <mxGeometry x="1" relative="1" as="geometry" />
        </mxCell>
        <mxCell id="DG-fOdzNMm19QLig9ons-21" value="provides" style="shape=rhombus;perimeter=rhombusPerimeter;whiteSpace=wrap;html=1;align=center;sketch=0;" vertex="1" parent="1">
          <mxGeometry x="210" y="180" width="100" height="60" as="geometry" />
        </mxCell>
        <mxCell id="DG-fOdzNMm19QLig9ons-22" value="Name" style="ellipse;whiteSpace=wrap;html=1;align=center;sketch=0;" vertex="1" parent="1">
          <mxGeometry x="-20" y="340" width="100" height="40" as="geometry" />
        </mxCell>
        <mxCell id="DG-fOdzNMm19QLig9ons-26" style="edgeStyle=orthogonalEdgeStyle;rounded=0;orthogonalLoop=1;jettySize=auto;html=1;" edge="1" parent="1" source="DG-fOdzNMm19QLig9ons-24" target="DG-fOdzNMm19QLig9ons-27">
          <mxGeometry relative="1" as="geometry">
            <mxPoint x="135" y="460" as="targetPoint" />
          </mxGeometry>
        </mxCell>
        <mxCell id="DG-fOdzNMm19QLig9ons-28" style="edgeStyle=orthogonalEdgeStyle;rounded=0;orthogonalLoop=1;jettySize=auto;html=1;exitX=0;exitY=1;exitDx=0;exitDy=0;" edge="1" parent="1" source="DG-fOdzNMm19QLig9ons-24" target="DG-fOdzNMm19QLig9ons-29">
          <mxGeometry relative="1" as="geometry">
            <mxPoint x="70" y="520" as="targetPoint" />
          </mxGeometry>
        </mxCell>
        <mxCell id="DG-fOdzNMm19QLig9ons-32" style="edgeStyle=orthogonalEdgeStyle;rounded=0;orthogonalLoop=1;jettySize=auto;html=1;exitX=1;exitY=1;exitDx=0;exitDy=0;" edge="1" parent="1" source="DG-fOdzNMm19QLig9ons-24" target="DG-fOdzNMm19QLig9ons-33">
          <mxGeometry relative="1" as="geometry">
            <mxPoint x="250" y="540" as="targetPoint" />
          </mxGeometry>
        </mxCell>
        <mxCell id="DG-fOdzNMm19QLig9ons-24" value="Address" style="ellipse;whiteSpace=wrap;html=1;align=center;sketch=0;" vertex="1" parent="1">
          <mxGeometry x="90" y="320" width="90" height="50" as="geometry" />
        </mxCell>
        <mxCell id="DG-fOdzNMm19QLig9ons-27" value="Pincode" style="ellipse;whiteSpace=wrap;html=1;align=center;sketch=0;" vertex="1" parent="1">
          <mxGeometry x="130" y="460" width="100" height="40" as="geometry" />
        </mxCell>
        <mxCell id="DG-fOdzNMm19QLig9ons-29" value="Lane" style="ellipse;whiteSpace=wrap;html=1;align=center;sketch=0;" vertex="1" parent="1">
          <mxGeometry x="20" y="500" width="100" height="40" as="geometry" />
        </mxCell>
        <mxCell id="DG-fOdzNMm19QLig9ons-33" value="Post Office" style="ellipse;whiteSpace=wrap;html=1;align=center;sketch=0;" vertex="1" parent="1">
          <mxGeometry x="200" y="520" width="100" height="40" as="geometry" />
        </mxCell>
        <mxCell id="DG-fOdzNMm19QLig9ons-41" style="edgeStyle=orthogonalEdgeStyle;rounded=0;orthogonalLoop=1;jettySize=auto;html=1;exitX=0.5;exitY=0;exitDx=0;exitDy=0;" edge="1" parent="1" source="DG-fOdzNMm19QLig9ons-38" target="DG-fOdzNMm19QLig9ons-42">
          <mxGeometry relative="1" as="geometry">
            <mxPoint x="150.00000000000023" y="29.999999999999943" as="targetPoint" />
          </mxGeometry>
        </mxCell>
        <mxCell id="DG-fOdzNMm19QLig9ons-43" style="edgeStyle=orthogonalEdgeStyle;rounded=0;orthogonalLoop=1;jettySize=auto;html=1;exitX=1;exitY=0.75;exitDx=0;exitDy=0;" edge="1" parent="1" source="DG-fOdzNMm19QLig9ons-38" target="DG-fOdzNMm19QLig9ons-44">
          <mxGeometry relative="1" as="geometry">
            <mxPoint x="240.00000000000023" y="79.83333333333337" as="targetPoint" />
          </mxGeometry>
        </mxCell>
        <mxCell id="DG-fOdzNMm19QLig9ons-38" value="Education" style="shape=ext;margin=3;double=1;whiteSpace=wrap;html=1;align=center;sketch=0;" vertex="1" parent="1">
          <mxGeometry x="30" y="50" width="100" height="40" as="geometry" />
        </mxCell>
        <mxCell id="DG-fOdzNMm19QLig9ons-40" value="Registration number" style="ellipse;whiteSpace=wrap;html=1;align=center;fontStyle=4;sketch=0;" vertex="1" parent="1">
          <mxGeometry x="-120" y="330" width="100" height="40" as="geometry" />
        </mxCell>
        <mxCell id="DG-fOdzNMm19QLig9ons-42" value="School Name" style="ellipse;whiteSpace=wrap;html=1;align=center;sketch=0;" vertex="1" parent="1">
          <mxGeometry x="140" y="10" width="90" height="40" as="geometry" />
        </mxCell>
        <mxCell id="DG-fOdzNMm19QLig9ons-44" value="Highest Qualification" style="ellipse;whiteSpace=wrap;html=1;align=center;sketch=0;" vertex="1" parent="1">
          <mxGeometry x="190.00000000000023" y="59.83333333333337" width="100" height="40" as="geometry" />
        </mxCell>
        <mxCell id="DG-fOdzNMm19QLig9ons-57" style="edgeStyle=orthogonalEdgeStyle;rounded=0;orthogonalLoop=1;jettySize=auto;html=1;exitX=0.25;exitY=0;exitDx=0;exitDy=0;" edge="1" parent="1" source="DG-fOdzNMm19QLig9ons-45" target="DG-fOdzNMm19QLig9ons-58">
          <mxGeometry relative="1" as="geometry">
            <mxPoint x="34.66666666666674" y="160" as="targetPoint" />
          </mxGeometry>
        </mxCell>
        <mxCell id="DG-fOdzNMm19QLig9ons-59" style="edgeStyle=orthogonalEdgeStyle;rounded=0;orthogonalLoop=1;jettySize=auto;html=1;exitX=0.75;exitY=0;exitDx=0;exitDy=0;" edge="1" parent="1" source="DG-fOdzNMm19QLig9ons-45" target="DG-fOdzNMm19QLig9ons-60">
          <mxGeometry relative="1" as="geometry">
            <mxPoint x="110.00000000000023" y="160" as="targetPoint" />
          </mxGeometry>
        </mxCell>
        <mxCell id="DG-fOdzNMm19QLig9ons-45" value="Branch" style="whiteSpace=wrap;html=1;align=center;sketch=0;" vertex="1" parent="1">
          <mxGeometry x="10" y="190" width="100" height="40" as="geometry" />
        </mxCell>
        <mxCell id="DG-fOdzNMm19QLig9ons-48" value="" style="endArrow=none;html=1;rounded=0;" edge="1" parent="1">
          <mxGeometry relative="1" as="geometry">
            <mxPoint x="-140" y="209.57999999999998" as="sourcePoint" />
            <mxPoint x="10" y="210" as="targetPoint" />
            <Array as="points">
              <mxPoint x="-50" y="209.57999999999998" />
            </Array>
          </mxGeometry>
        </mxCell>
        <mxCell id="DG-fOdzNMm19QLig9ons-49" value="M" style="resizable=0;html=1;align=left;verticalAlign=bottom;" connectable="0" vertex="1" parent="DG-fOdzNMm19QLig9ons-48">
          <mxGeometry x="-1" relative="1" as="geometry" />
        </mxCell>
        <mxCell id="DG-fOdzNMm19QLig9ons-50" value="N" style="resizable=0;html=1;align=right;verticalAlign=bottom;" connectable="0" vertex="1" parent="DG-fOdzNMm19QLig9ons-48">
          <mxGeometry x="1" relative="1" as="geometry" />
        </mxCell>
        <mxCell id="DG-fOdzNMm19QLig9ons-52" value="" style="endArrow=none;html=1;rounded=0;exitX=0.5;exitY=0;exitDx=0;exitDy=0;entryX=0;entryY=1;entryDx=0;entryDy=0;" edge="1" parent="1" source="DG-fOdzNMm19QLig9ons-8" target="DG-fOdzNMm19QLig9ons-38">
          <mxGeometry relative="1" as="geometry">
            <mxPoint x="-200" y="190" as="sourcePoint" />
            <mxPoint x="-60" y="140" as="targetPoint" />
          </mxGeometry>
        </mxCell>
        <mxCell id="DG-fOdzNMm19QLig9ons-56" value="applies" style="shape=rhombus;perimeter=rhombusPerimeter;whiteSpace=wrap;html=1;align=center;sketch=0;" vertex="1" parent="1">
          <mxGeometry x="-100" y="185" width="80" height="45" as="geometry" />
        </mxCell>
        <mxCell id="DG-fOdzNMm19QLig9ons-58" value="Branch name" style="ellipse;whiteSpace=wrap;html=1;align=center;sketch=0;" vertex="1" parent="1">
          <mxGeometry x="-10" y="150" width="94.67" height="30" as="geometry" />
        </mxCell>
        <mxCell id="DG-fOdzNMm19QLig9ons-60" value="Branch Address" style="ellipse;whiteSpace=wrap;html=1;align=center;sketch=0;" vertex="1" parent="1">
          <mxGeometry x="130" y="120" width="80" height="40" as="geometry" />
        </mxCell>
      </root>
    </mxGraphModel>
  </diagram>
</mxfile>
